# File created by Blade
# Date/Time:  Thu Jan 22 16:25:48 2015
# Frame Rate: 120.000 fps
#------------------------------------------------------
:FULLY-SPECIFIED
:DEGREES
533
root 1.952156 40.192231 8.880763 57.614056 23.099548 51.787550
RightUpLeg -31.873017 -18.972998 -42.030890
RightLeg 23.408511 -0.000000 -0.000000
RightFoot -12.694579 -24.555295 18.280197
RightToeBase -3.974839 -0.000000 0.000000
LeftUpLeg 8.161149 -22.393660 15.494644
LeftLeg 142.827519 -0.000000 -0.000000
LeftFoot 19.431910 13.823813 -21.774627
LeftToeBase -1.101033 -0.000000 0.000000
Spine 17.400412 -5.983686 -3.206101
RightShoulder -8.324922 4.876936 -51.937496
RightArm 22.240654 43.091161 19.958917
RightForeArm 1.061560 -0.000000 19.059539
RightHand 9.020276 0.000000 -18.606045
RightHandThumb1 -24.326973 -0.000000 -32.862282
LeftShoulder -34.874061 37.338150 -15.339325
LeftArm 25.933945 -9.906997 -82.597208
LeftForeArm 40.093782 0.000000 15.420233
LeftHand -14.033477 -0.000000 -24.399790
LeftHandThumb1 -26.253704 0.000000 33.147579
Head -8.990232 -24.838755 -14.779787
534
root 1.975882 40.345775 8.899289 57.282205 22.792831 51.099795
RightUpLeg -33.156308 -19.326446 -41.378549
RightLeg 24.389236 -0.000000 -0.000000
RightFoot -10.513529 -24.373689 17.826140
RightToeBase -5.650928 -0.000000 0.000000
LeftUpLeg 8.223676 -21.461776 15.527262
LeftLeg 142.910606 -0.000000 -0.000000
LeftFoot 19.858905 13.375469 -22.021510
LeftToeBase -1.172945 -0.000000 0.000000
Spine 17.652561 -5.503725 -3.054881
RightShoulder -8.402957 4.938609 -52.001453
RightArm 22.200208 43.104128 19.845926
RightForeArm 1.055863 0.000000 18.999111
RightHand 9.299120 -0.000000 -18.865163
RightHandThumb1 -24.326973 -0.000000 -32.862282
LeftShoulder -34.903392 37.279685 -15.668154
LeftArm 26.049633 -10.031895 -82.846143
LeftForeArm 39.463620 -0.000000 15.248337
LeftHand -14.272556 -0.000000 -23.702423
LeftHandThumb1 -26.253704 0.000000 33.147579
Head -9.473512 -24.857440 -14.664506
535
root 1.990761 40.491570 8.909874 57.003262 22.429395 50.361690
RightUpLeg -34.808169 -19.772979 -40.628437
RightLeg 25.718732 -0.000000 -0.000000
RightFoot -8.247973 -24.125985 17.131159
RightToeBase -7.590067 -0.000000 0.000000
LeftUpLeg 8.251886 -20.617764 15.580033
LeftLeg 142.972482 -0.000000 -0.000000
LeftFoot 20.283520 12.871791 -22.388424
LeftToeBase -1.503040 -0.000000 0.000000
Spine 17.884051 -5.030099 -2.959169
RightShoulder -8.517713 4.969339 -52.040714
RightArm 22.138224 43.063277 19.647473
RightForeArm 1.326665 -0.000000 18.979642
RightHand 8.836364 -0.000000 -19.136620
RightHandThumb1 -24.326973 -0.000000 -32.862282
LeftShoulder -34.931200 37.181096 -15.933324
LeftArm 26.130539 -10.276471 -83.163721
LeftForeArm 39.022873 -0.000000 15.108050
LeftHand -14.472673 -0.000000 -22.999899
LeftHandThumb1 -26.253704 0.000000 33.147579
Head -10.136210 -24.802800 -14.447574
536
root 1.997822 40.615843 8.920900 56.676442 22.046937 49.490536
RightUpLeg -36.713096 -20.072535 -39.755118
RightLeg 27.277079 -0.000000 -0.000000
RightFoot -6.401838 -23.872396 16.815397
RightToeBase -8.062682 -0.000000 0.000000
LeftUpLeg 8.368630 -19.779763 15.717462
LeftLeg 142.948015 -0.000000 -0.000000
LeftFoot 20.607775 12.509361 -22.640522
LeftToeBase -1.782656 -0.000000 0.000000
Spine 18.139795 -4.575096 -2.836671
RightShoulder -8.626612 4.946168 -52.071189
RightArm 22.322236 43.250163 19.555993
RightForeArm 1.450897 -0.000000 18.857962
RightHand 9.211714 0.000000 -18.900582
RightHandThumb1 -24.326973 -0.000000 -32.862282
LeftShoulder -35.014764 37.083369 -16.213642
LeftArm 26.213482 -10.561848 -83.493660
LeftForeArm 38.701600 0.000000 14.978801
LeftHand -14.606104 0.000000 -22.214777
LeftHandThumb1 -26.253704 0.000000 33.147579
Head -10.879818 -24.623589 -14.289142
537
root 1.995143 40.715412 8.932831 56.338205 21.656798 48.528234
RightUpLeg -38.740175 -20.202953 -38.830359
RightLeg 28.920714 -0.000000 -0.000000
RightFoot -5.701406 -23.448038 17.759610
RightToeBase -7.126008 -0.000000 0.000000
LeftUpLeg 8.538280 -19.086981 15.925270
LeftLeg 142.877537 -0.000000 -0.000000
LeftFoot 20.786036 12.201015 -23.097819
LeftToeBase -1.777984 -0.000000 0.000000
Spine 18.366298 -4.111593 -2.727658
RightShoulder -8.674811 5.006839 -52.115885
RightArm 22.436719 43.362546 19.457173
RightForeArm 1.525911 -0.000000 18.798726
RightHand 9.330731 -0.000000 -19.134628
RightHandThumb1 -24.326973 -0.000000 -32.862282
LeftShoulder -35.143188 37.035168 -16.459685
LeftArm 26.341694 -10.931665 -83.877296
LeftForeArm 38.589116 -0.000000 14.909373
LeftHand -14.710562 -0.000000 -21.466699
LeftHandThumb1 -26.253704 0.000000 33.147579
Head -11.588873 -24.349188 -14.083272
538
root 1.987523 40.783784 8.947771 56.001419 21.299082 47.570129
RightUpLeg -40.705771 -20.271596 -37.845481
RightLeg 30.476243 -0.000000 -0.000000
RightFoot -5.229220 -23.019829 18.125433
RightToeBase -5.067098 -0.000000 0.000000
LeftUpLeg 8.742212 -18.541868 16.203112
LeftLeg 142.751324 -0.000000 -0.000000
LeftFoot 20.901583 12.055763 -23.298752
LeftToeBase -1.747665 -0.000000 0.000000
Spine 18.585956 -3.731943 -2.647875
RightShoulder -8.723528 5.048184 -52.103017
RightArm 22.697804 43.542045 19.388382
RightForeArm 1.572718 -0.000000 18.685949
RightHand 9.215401 0.000000 -19.262834
RightHandThumb1 -24.326973 -0.000000 -32.862282
LeftShoulder -35.370644 37.075146 -16.734477
LeftArm 26.608697 -11.103587 -84.121686
LeftForeArm 38.394505 0.000000 14.790441
LeftHand -14.887850 -0.000000 -20.870539
LeftHandThumb1 -26.253704 0.000000 33.147579
Head -12.272540 -23.971243 -13.862701
539
root 1.985414 40.826663 8.968465 55.625607 20.950034 46.678913
RightUpLeg -42.461161 -20.368824 -36.824386
RightLeg 31.732744 -0.000000 -0.000000
RightFoot -4.696472 -22.692127 18.319027
RightToeBase -3.914239 -0.000000 0.000000
LeftUpLeg 9.053921 -18.173545 16.403426
LeftLeg 142.566468 -0.000000 -0.000000
LeftFoot 20.929945 12.052112 -23.472247
LeftToeBase -1.726940 -0.000000 0.000000
Spine 18.854654 -3.410705 -2.631009
RightShoulder -8.792369 5.067261 -52.076847
RightArm 23.029483 43.718252 19.374585
RightForeArm 1.806180 -0.000000 18.557136
RightHand 8.766772 -0.000000 -19.594846
RightHandThumb1 -24.326973 -0.000000 -32.862282
LeftShoulder -35.585757 37.142086 -16.987876
LeftArm 26.941475 -11.208369 -84.232051
LeftForeArm 38.295886 -0.000000 14.610264
LeftHand -14.953001 -0.000000 -20.394487
LeftHandThumb1 -26.253704 0.000000 33.147579
Head -12.846082 -23.537238 -13.658325
540
root 1.984212 40.842270 8.995432 55.281011 20.658802 45.919395
RightUpLeg -43.808239 -20.382673 -35.921362
RightLeg 32.467172 -0.000000 -0.000000
RightFoot -4.795192 -22.366191 18.980150
RightToeBase -3.003782 -0.000000 0.000000
LeftUpLeg 9.357059 -18.113943 16.560050
LeftLeg 142.345159 -0.000000 -0.000000
LeftFoot 20.959116 12.061292 -23.609374
LeftToeBase -1.585088 -0.000000 0.000000
Spine 19.090782 -3.220511 -2.663710
RightShoulder -8.745922 5.160838 -52.032258
RightArm 23.203750 43.895137 19.229347
RightForeArm 1.833810 -0.000000 18.508936
RightHand 9.358574 0.000000 -19.252723
RightHandThumb1 -24.326973 -0.000000 -32.862282
LeftShoulder -35.774218 37.185083 -17.154955
LeftArm 27.260071 -11.250223 -84.222429
LeftForeArm 38.414504 -0.000000 14.370279
LeftHand -15.080039 -0.000000 -20.129060
LeftHandThumb1 -26.253704 0.000000 33.147579
Head -13.252000 -23.064581 -13.495057
541
root 1.998804 40.833782 9.029359 54.933283 20.365811 45.329366
RightUpLeg -44.667661 -20.360627 -35.248917
RightLeg 32.624536 -0.000000 -0.000000
RightFoot -5.535173 -21.499010 20.132387
RightToeBase -1.796921 -0.000000 0.000000
LeftUpLeg 9.748403 -18.229037 16.521106
LeftLeg 142.066868 -0.000000 -0.000000
LeftFoot 20.883543 12.205968 -23.651040
LeftToeBase -1.521498 -0.000000 0.000000
Spine 19.330765 -3.141185 -2.814996
RightShoulder -8.727770 5.253629 -51.993120
RightArm 23.514393 44.008139 19.220275
RightForeArm 2.052436 -0.000000 18.406030
RightHand 9.412536 -0.000000 -19.612136
RightHandThumb1 -24.326973 -0.000000 -32.862282
LeftShoulder -35.865260 37.151694 -17.199495
LeftArm 27.456156 -11.336562 -84.100769
LeftForeArm 38.533220 0.000000 14.120192
LeftHand -15.239514 -0.000000 -19.903680
LeftHandThumb1 -26.253704 0.000000 33.147579
Head -13.501693 -22.561265 -13.369768
542
root 2.015062 40.803034 9.066719 54.679170 20.110452 44.871748
RightUpLeg -45.127587 -20.318520 -34.731249
RightLeg 32.086521 -0.000000 -0.000000
RightFoot -6.618624 -20.467377 21.109172
RightToeBase -0.348505 -0.000000 0.000000
LeftUpLeg 10.076021 -18.599314 16.381498
LeftLeg 141.766124 -0.000000 -0.000000
LeftFoot 20.778191 12.281522 -23.727309
LeftToeBase -1.582694 -0.000000 0.000000
Spine 19.451386 -3.081684 -2.979919
RightShoulder -8.762643 5.226297 -51.934674
RightArm 23.925075 44.100250 19.244647
RightForeArm 2.316890 -0.000000 18.283424
RightHand 8.741411 -0.000000 -20.042605
RightHandThumb1 -24.326973 -0.000000 -32.862282
LeftShoulder -35.895731 37.167887 -17.214913
LeftArm 27.706891 -11.442280 -83.870771
LeftForeArm 38.771347 -0.000000 13.831463
LeftHand -15.228128 -0.000000 -19.892111
LeftHandThumb1 -26.253704 0.000000 33.147579
Head -13.543503 -22.158841 -13.350240
